<svg xmlns="http://www.w3.org/2000/svg" xmlns:xlink="http://www.w3.org/1999/xlink" viewBox="0 0 256 256" width="256" height="256"><rect width="256" height="256" fill="#ffffff"/><path d="M128.000,128.000 L128.000,15.360 A112.640,112.640 0 0 1 225.549,71.680 Z" fill="hsl(0, 62%, 55%)"/><path d="M128.000,128.000 L225.549,71.680 A112.640,112.640 0 0 1 225.549,184.320 Z" fill="hsl(60, 62%, 55%)"/><path d="M128.000,128.000 L225.549,184.320 A112.640,112.640 0 0 1 128.000,240.640 Z" fill="hsl(120, 62%, 55%)"/><path d="M128.000,128.000 L128.000,240.640 A112.640,112.640 0 0 1 30.451,184.320 Z" fill="hsl(180, 62%, 55%)"/><path d="M128.000,128.000 L30.451,184.320 A112.640,112.640 0 0 1 30.451,71.680 Z" fill="hsl(240, 62%, 55%)"/><path d="M128.000,128.000 L30.451,71.680 A112.640,112.640 0 0 1 128.000,15.360 Z" fill="hsl(300, 62%, 55%)"/></svg>